<svg xmlns="http://www.w3.org/2000/svg" width="64" height="64" viewBox="0 0 512 512" fill="none">
  <defs>
    <linearGradient id="panel" x1="80" y1="68" x2="432" y2="444" gradientUnits="userSpaceOnUse">
      <stop stop-color="#123B34" />
      <stop offset="1" stop-color="#0B2421" />
    </linearGradient>
  </defs>
  <rect x="44" y="44" width="424" height="424" rx="120" fill="url(#panel)" />
  <rect x="44" y="44" width="424" height="424" rx="120" stroke="#D7F7E8" stroke-opacity=".22" stroke-width="8" />
  <circle cx="165" cy="153" r="34" fill="#FFB86C" />
  <circle cx="165" cy="153" r="16" fill="#FFF7EA" />
  <path d="M154 360C154 292.726 208.726 238 276 238H358" stroke="#F4FFF4" stroke-width="34" stroke-linecap="round" />
  <path d="M344 112L392 160L344 208L296 160L344 112Z" fill="#FFF7EA" />
  <path d="M328 266L398 336L328 406L258 336L328 266Z" fill="#7AE8C0" />
  <path d="M328 292L372 336L328 380L284 336L328 292Z" fill="#123B34" />
</svg>
